HIERARCHY
ROOT root
{
	OFFSET 0.000000 0.000000 0.000000
	CHANNELS 6 Xposition Yposition Zposition Zrotation Yrotation Xrotation
	JOINT lhip
	{
		OFFSET 0.058581 -0.082280 -0.017664
		CHANNELS 3 Zrotation Yrotation Xrotation
		JOINT lknee
		{
			OFFSET 0.043451 -0.386469 0.008037
			CHANNELS 3 Zrotation Yrotation Xrotation
			JOINT lankle
			{
				OFFSET -0.014790 -0.426874 -0.037428
				CHANNELS 3 Zrotation Yrotation Xrotation
				JOINT ltoe
				{
					OFFSET 0.041054 -0.060286 0.122042
					CHANNELS 3 Zrotation Yrotation Xrotation
					End Site
					{
						OFFSET 0.000000 0.000000 0.000000
					}
				}
			}
		}
	}
	JOINT rhip
	{
		OFFSET -0.060310 -0.090513 -0.013543
		CHANNELS 3 Zrotation Yrotation Xrotation
		JOINT rknee
		{
			OFFSET -0.043257 -0.383688 -0.004843
			CHANNELS 3 Zrotation Yrotation Xrotation
			JOINT rankle
			{
				OFFSET 0.019056 -0.420046 -0.034562
				CHANNELS 3 Zrotation Yrotation Xrotation
				JOINT rtoe
				{
					OFFSET -0.034840 -0.062106 0.130323
					CHANNELS 3 Zrotation Yrotation Xrotation
					End Site
					{
						OFFSET 0.000000 0.000000 0.000000
					}
				}
			}
		}
	}
	JOINT lowerback
	{
		OFFSET 0.004439 0.124404 -0.038385
		CHANNELS 3 Zrotation Yrotation Xrotation
		JOINT upperback
		{
			OFFSET 0.004488 0.137956 0.026820
			CHANNELS 3 Zrotation Yrotation Xrotation
			JOINT chest
			{
				OFFSET -0.002265 0.056032 0.002855
				CHANNELS 3 Zrotation Yrotation Xrotation
				JOINT lowerneck
				{
					OFFSET -0.013390 0.211636 -0.033468
					CHANNELS 3 Zrotation Yrotation Xrotation
					JOINT upperneck
					{
						OFFSET 0.010113 0.088937 0.050410
						CHANNELS 3 Zrotation Yrotation Xrotation
						End Site
						{
							OFFSET 0.000000 0.000000 0.000000
						}
					}
				}
				JOINT lclavicle
				{
					OFFSET 0.071702 0.114000 -0.018898
					CHANNELS 3 Zrotation Yrotation Xrotation
					JOINT lshoulder
					{
						OFFSET 0.122921 0.045205 -0.019046
						CHANNELS 3 Zrotation Yrotation Xrotation
						JOINT lelbow
						{
							OFFSET 0.255332 -0.015649 -0.022946
							CHANNELS 3 Zrotation Yrotation Xrotation
							JOINT lwrist
							{
								OFFSET 0.265709 0.012698 -0.007375
								CHANNELS 3 Zrotation Yrotation Xrotation
								End Site
								{
									OFFSET 0.000000 0.000000 0.000000
								}
							}
						}
					}
				}
				JOINT rclavicle
				{
					OFFSET -0.082954 0.112472 -0.023707
					CHANNELS 3 Zrotation Yrotation Xrotation
					JOINT rshoulder
					{
						OFFSET -0.113228 0.046853 -0.008472
						CHANNELS 3 Zrotation Yrotation Xrotation
						JOINT relbow
						{
							OFFSET -0.260127 -0.014369 -0.031269
							CHANNELS 3 Zrotation Yrotation Xrotation
							JOINT rwrist
							{
								OFFSET -0.269108 0.006794 -0.006027
								CHANNELS 3 Zrotation Yrotation Xrotation
								End Site
								{
									OFFSET 0.000000 0.000000 0.000000
								}
							}
						}
					}
				}
			}
		}
	}
}
MOTION
Frames: 7
Frame Time: 0.033333
-0.159792 0.744668 1.026319 96.347583 1.484976 90.321497 -4.515903 -4.077358 18.817804 -4.841958 -16.486122 20.265386 -4.866885 10.805862 5.583102 0.000000 -0.000000 0.000000 -1.723328 9.837741 -42.181909 -0.853646 -7.118911 61.048700 -0.337197 -12.402017 -13.448089 0.000000 -0.000000 0.000000 -0.353903 -14.511780 5.690019 4.031310 -2.441929 3.099766 -0.875128 -3.582983 -0.466756 -1.569079 4.342992 -8.801692 3.637974 3.220617 -12.375023 -13.263919 12.867754 -8.578228 -69.173020 -16.361076 29.994305 -176.324860 -69.263525 -167.665932 23.067200 -14.499806 -8.388382 12.415594 -19.628065 2.026257 50.570965 -24.904413 16.469103 41.377578 71.756795 64.464488 -15.213501 16.642188 9.108868 
-0.040512 0.745967 1.038976 96.041852 -0.155495 90.816768 -5.597036 -3.278981 18.120856 -4.517699 -11.069557 28.514217 -2.648495 13.428860 1.720062 0.000000 -0.000000 0.000000 -1.745095 7.819440 -36.787020 0.578792 -4.042368 39.323571 0.650059 -11.041257 -16.480357 0.000000 -0.000000 0.000000 0.131826 -12.698759 2.335241 3.072438 -3.195023 3.842850 -1.713835 -3.373925 -0.289881 -2.996055 3.369033 -7.270810 3.964380 3.595509 -12.798098 -11.412407 12.601630 -6.123037 -70.445934 -13.480137 31.479389 -170.300882 -69.887144 -173.688915 22.455309 -13.721821 -12.506956 10.238973 -21.825689 2.381294 55.674436 -27.037459 15.582495 44.396708 73.714216 67.126115 -16.209056 16.608092 8.079138 
0.054230 0.745412 1.036773 95.009263 -0.649759 90.660902 -4.385403 -2.253132 15.913526 -4.923736 -5.870851 38.051468 -2.023265 14.891835 -2.359540 0.000000 -0.000000 0.000000 -0.673999 6.647960 -32.123574 1.008242 -1.826040 28.167601 1.091797 -9.852900 -19.125405 0.000000 -0.000000 0.000000 0.318474 -10.646348 1.478763 3.042037 -3.981666 4.453262 -2.195674 -3.162049 -0.339383 -2.592497 3.512065 -7.784729 2.723439 3.383568 -12.598683 -10.940219 14.543067 -3.401170 -70.952855 -11.341922 30.693933 -161.072846 -69.560717 176.907559 19.703889 -14.140960 -13.224904 10.611533 -23.190233 3.500024 57.869766 -24.148214 12.812484 53.010667 73.572428 74.543450 -14.565530 16.281573 8.701442 
0.142917 0.745050 1.024237 94.253747 -1.243600 90.637951 -3.367075 -2.314231 10.837079 -5.214052 -1.112286 51.188247 -0.924251 16.799698 -5.240978 0.000000 -0.000000 0.000000 -0.362099 6.270996 -29.492061 1.015706 -2.166093 25.543931 0.527137 -10.529730 -19.531638 0.000000 -0.000000 0.000000 -0.539636 -9.058922 1.429362 3.644152 -4.081699 5.256628 -1.938569 -2.619502 -0.791468 -3.233363 2.800280 -8.094159 2.682101 3.214948 -13.476837 -12.304399 15.347577 -1.252134 -69.641685 -8.020929 29.688108 -154.492913 -69.873144 170.194588 18.462792 -13.312388 -15.064611 14.258350 -21.871127 2.848851 58.062965 -21.567177 11.679769 58.147287 76.286654 79.150629 -15.365800 16.337341 9.859278 
0.230722 0.746256 1.001538 92.972628 -2.131536 90.596472 -3.149270 -4.137778 4.111791 -5.044694 4.649023 66.248010 1.246842 18.516788 -8.035251 0.000000 -0.000000 0.000000 -0.966941 7.827354 -26.640914 1.113836 -1.911047 26.821856 0.465902 -10.374885 -18.482716 0.000000 -0.000000 0.000000 -1.651320 -7.180210 1.209632 4.430899 -3.726699 6.644130 -1.936838 -1.524943 -1.995260 -3.368435 1.434972 -7.505657 2.498678 3.086452 -14.097881 -13.792568 15.689804 0.949252 -67.199528 -4.289447 28.471337 -147.001257 -71.514465 163.375324 16.827290 -12.183941 -18.049621 17.927038 -19.404765 2.153257 57.979174 -17.098279 11.533333 61.019275 79.909371 81.985241 -17.049378 16.011523 10.222090 
0.315477 0.745238 0.970557 89.324523 -2.640621 90.048820 -1.833033 -5.427274 -3.584800 -5.248895 10.585854 82.384745 3.708897 18.236635 -10.767135 0.000000 -0.000000 0.000000 0.522488 9.105093 -27.210407 1.686525 -0.392282 38.727255 -4.877048 -8.972110 -19.659265 0.000000 -0.000000 0.000000 -2.445004 -4.332423 1.589026 4.614413 -2.117969 8.750497 -2.388697 -0.298408 -2.966393 -1.461756 1.567612 -8.277508 1.702461 1.950905 -13.483709 -13.612548 16.879433 1.421333 -63.774926 -0.774997 26.917314 -136.078966 -73.898869 154.475264 12.614644 -11.058841 -19.677578 21.740432 -15.840212 0.184510 57.261854 -9.782402 13.700385 62.643979 84.269493 83.814878 -18.228244 15.802834 10.064364 
0.397535 0.748059 0.951264 83.945335 -0.912027 87.475606 0.884974 -5.547036 -9.993117 -5.318444 14.280192 94.453419 4.808959 18.407589 -13.262271 0.000000 -0.000000 0.000000 3.647874 14.636993 -22.484898 2.014435 -0.850589 46.442898 -5.461885 -10.241976 -23.494959 0.000000 -0.000000 0.000000 -0.668576 -3.271415 6.396197 4.839040 0.524148 9.015988 -2.716291 2.106881 -3.145068 0.421373 2.623758 -10.492124 -0.468687 2.282102 -13.609880 -16.173091 19.477703 -0.045511 -59.555238 3.110643 24.789453 -114.461042 -76.419205 132.262592 11.549357 -9.448396 -19.635548 24.679770 -10.961444 -0.782185 53.393502 2.594999 14.624671 93.896438 86.605899 114.403202 -22.056432 16.237065 9.891554 
